<svg xmlns="http://www.w3.org/2000/svg" viewBox="0 0 250 48"><path d="M0 22.5v3.0" stroke="#00dfff" stroke-width="2" opacity="0.2"/><path d="M4 21.4v5.2" stroke="#00dfff" stroke-width="2" opacity="0.30000000000000004"/><path d="M8 22.2v3.6" stroke="#00dfff" stroke-width="2" opacity="0.4"/><path d="M12 20.7v6.6" stroke="#00dfff" stroke-width="2" opacity="0.5"/><path d="M16 21.8v4.5" stroke="#00dfff" stroke-width="2" opacity="0.6000000000000001"/><path d="M20 19.9v8.3" stroke="#00dfff" stroke-width="2" opacity="0.7"/><path d="M24 21.1v5.8" stroke="#00dfff" stroke-width="2" opacity="0.8"/><path d="M28 18.8v10.3" stroke="#00dfff" stroke-width="2" opacity="0.2"/><path d="M32 20.3v7.3" stroke="#00dfff" stroke-width="2" opacity="0.30000000000000004"/><path d="M36 22.1v3.8" stroke="#00dfff" stroke-width="2" opacity="0.4"/><path d="M40 19.4v9.2" stroke="#00dfff" stroke-width="2" opacity="0.5"/><path d="M44 21.4v5.2" stroke="#00dfff" stroke-width="2" opacity="0.6000000000000001"/><path d="M48 18.2v11.5" stroke="#00dfff" stroke-width="2" opacity="0.7"/><path d="M52 20.5v7.0" stroke="#00dfff" stroke-width="2" opacity="0.8"/><path d="M56 17.0v14.1" stroke="#00dfff" stroke-width="2" opacity="0.2"/><path d="M60 19.4v9.1" stroke="#00dfff" stroke-width="2" opacity="0.30000000000000004"/><path d="M64 22.2v3.6" stroke="#00dfff" stroke-width="2" opacity="0.4"/><path d="M68 18.2v11.6" stroke="#00dfff" stroke-width="2" opacity="0.5"/><path d="M72 21.2v5.6" stroke="#00dfff" stroke-width="2" opacity="0.6000000000000001"/><path d="M76 16.8v14.3" stroke="#00dfff" stroke-width="2" opacity="0.7"/><path d="M80 20.1v7.9" stroke="#00dfff" stroke-width="2" opacity="0.8"/><path d="M84 15.3v17.4" stroke="#00dfff" stroke-width="2" opacity="0.2"/><path d="M88 18.8v10.5" stroke="#00dfff" stroke-width="2" opacity="0.30000000000000004"/><path d="M92 22.5v3.0" stroke="#00dfff" stroke-width="2" opacity="0.4"/><path d="M96 17.3v13.5" stroke="#00dfff" stroke-width="2" opacity="0.5"/><path d="M100 21.2v5.5" stroke="#00dfff" stroke-width="2" opacity="0.6000000000000001"/><path d="M104 15.6v16.8" stroke="#00dfff" stroke-width="2" opacity="0.7"/><path d="M108 19.8v8.3" stroke="#00dfff" stroke-width="2" opacity="0.8"/><path d="M112 13.8v20.4" stroke="#00dfff" stroke-width="2" opacity="0.2"/><path d="M116 18.2v11.5" stroke="#00dfff" stroke-width="2" opacity="0.30000000000000004"/><path d="M120 11.8v24.4" stroke="#00dfff" stroke-width="2" opacity="0.4"/><path d="M124 16.5v15.0" stroke="#00dfff" stroke-width="2" opacity="0.5"/><path d="M128 21.5v4.9" stroke="#00dfff" stroke-width="2" opacity="0.6000000000000001"/><path d="M132 15.4v17.2" stroke="#00dfff" stroke-width="2" opacity="0.7"/><path d="M136 20.2v7.6" stroke="#00dfff" stroke-width="2" opacity="0.8"/><path d="M140 14.5v19.0" stroke="#00dfff" stroke-width="2" opacity="0.2"/><path d="M144 19.1v9.9" stroke="#00dfff" stroke-width="2" opacity="0.30000000000000004"/><path d="M148 13.8v20.5" stroke="#00dfff" stroke-width="2" opacity="0.4"/><path d="M152 18.1v11.9" stroke="#00dfff" stroke-width="2" opacity="0.5"/><path d="M156 22.1v3.8" stroke="#00dfff" stroke-width="2" opacity="0.6000000000000001"/><path d="M160 17.2v13.5" stroke="#00dfff" stroke-width="2" opacity="0.7"/><path d="M164 21.1v5.9" stroke="#00dfff" stroke-width="2" opacity="0.8"/><path d="M168 16.6v14.8" stroke="#00dfff" stroke-width="2" opacity="0.2"/><path d="M172 20.2v7.7" stroke="#00dfff" stroke-width="2" opacity="0.30000000000000004"/><path d="M176 16.1v15.8" stroke="#00dfff" stroke-width="2" opacity="0.4"/><path d="M180 19.4v9.1" stroke="#00dfff" stroke-width="2" opacity="0.5"/><path d="M184 22.5v3.0" stroke="#00dfff" stroke-width="2" opacity="0.6000000000000001"/><path d="M188 18.9v10.2" stroke="#00dfff" stroke-width="2" opacity="0.7"/><path d="M192 21.7v4.6" stroke="#00dfff" stroke-width="2" opacity="0.8"/><path d="M196 18.5v11.0" stroke="#00dfff" stroke-width="2" opacity="0.2"/><path d="M200 21.1v5.8" stroke="#00dfff" stroke-width="2" opacity="0.30000000000000004"/><path d="M204 18.3v11.4" stroke="#00dfff" stroke-width="2" opacity="0.4"/><path d="M208 20.6v6.8" stroke="#00dfff" stroke-width="2" opacity="0.5"/><path d="M212 18.2v11.6" stroke="#00dfff" stroke-width="2" opacity="0.6000000000000001"/><path d="M216 20.3v7.3" stroke="#00dfff" stroke-width="2" opacity="0.7"/><path d="M220 22.2v3.7" stroke="#00dfff" stroke-width="2" opacity="0.8"/><path d="M224 20.2v7.6" stroke="#00dfff" stroke-width="2" opacity="0.2"/><path d="M228 21.8v4.4" stroke="#00dfff" stroke-width="2" opacity="0.30000000000000004"/><path d="M232 20.2v7.5" stroke="#00dfff" stroke-width="2" opacity="0.4"/><path d="M236 21.6v4.8" stroke="#00dfff" stroke-width="2" opacity="0.5"/><path d="M240 20.5v7.1" stroke="#00dfff" stroke-width="2" opacity="0.6000000000000001"/><path d="M244 21.6v4.8" stroke="#00dfff" stroke-width="2" opacity="0.7"/><path d="M248 22.4v3.1" stroke="#00dfff" stroke-width="2" opacity="0.8"/></svg>